<svg width="48" height="48" viewBox="0 0 48 48" fill="none" xmlns="http://www.w3.org/2000/svg">
<path d="M18 7V4M10.1213 10.1213L8 8M10.1213 26L8 28.1213M26 10.1213L28.1213 8M7 18H4M31.729 32.3791L26.7455 41.6341C26.1762 42.6914 25.8915 43.22 25.549 43.3537C25.2518 43.4698 24.917 43.437 24.648 43.2655C24.3379 43.0679 24.1611 42.4941 23.8076 41.3465L16.8904 18.8905C16.6016 17.953 16.4572 17.4843 16.5734 17.1677C16.6746 16.8919 16.8919 16.6746 17.1677 16.5734C17.4843 16.4572 17.953 16.6016 18.8905 16.8904L41.3464 23.8077C42.4941 24.1612 43.0679 24.338 43.2654 24.648C43.4369 24.9171 43.4697 25.2519 43.3536 25.5491C43.2199 25.8916 42.6913 26.1762 41.634 26.7455L32.3791 31.729C32.222 31.8136 32.1435 31.8559 32.0747 31.9102C32.0137 31.9585 31.9585 32.0137 31.9102 32.0747C31.8559 32.1435 31.8136 32.222 31.729 32.3791Z" stroke="#4CAF4F" stroke-width="4" stroke-linecap="round" stroke-linejoin="round"/>
</svg>
