<svg width="48" height="48" viewBox="0 0 48 48" fill="none" xmlns="http://www.w3.org/2000/svg">
<path d="M38 42V30M32 36H44M24 30H16C12.2725 30 10.4087 30 8.93853 30.609C6.97831 31.4209 5.42092 32.9783 4.60896 34.9385C4 36.4087 4 38.2725 4 42M31 6.58152C33.9318 7.76829 36 10.6426 36 14C36 17.3574 33.9318 20.2317 31 21.4185M27 14C27 18.4183 23.4183 22 19 22C14.5817 22 11 18.4183 11 14C11 9.58172 14.5817 6 19 6C23.4183 6 27 9.58172 27 14Z" stroke="#4CAF4F" stroke-width="4" stroke-linecap="round" stroke-linejoin="round"/>
</svg>
